<svg id="Layer_1" data-name="Layer 1" xmlns="http://www.w3.org/2000/svg" viewBox="0 0 300 300"><defs><style>.cls-1{fill:#2e3192;}</style></defs><title>Color</title><path class="cls-1" d="M169.34,145a20,20,0,1,0,0,10h90.54A110,110,0,0,1,72.22,227.78,110,110,0,1,1,227.78,72.22l14.14-14.14a130,130,0,1,0,38,96.92h.1V145Z"/><path class="cls-1" d="M229.46,159a79.74,79.74,0,0,1-21.19,45.73L169.58,166a25.2,25.2,0,0,1-3.49,3.59l38.64,38.64a79.65,79.65,0,0,1-52.48,21.67V175.39c-.74.07-1.49.11-2.25.11a24.93,24.93,0,0,1-2.75-.15v54.58A79.69,79.69,0,0,1,95,208l38.63-38.63a25.7,25.7,0,0,1-3.44-3.63L91.49,204.48a79.71,79.71,0,0,1-21.43-52.23h55c0-.58-.07-1.16-.07-1.75a24.87,24.87,0,0,1,.22-3.25H70.07a79.67,79.67,0,0,1,21.66-52l39.14,39.14a25.2,25.2,0,0,1,3.59-3.49L95.27,91.73a79.67,79.67,0,0,1,52-21.66v55.58a24.93,24.93,0,0,1,2.75-.15c.76,0,1.51,0,2.25.11V70.06a79.71,79.71,0,0,1,52.23,21.43L165.26,130.7a25.7,25.7,0,0,1,3.63,3.44L208,95a79.72,79.72,0,0,1,21.43,46h20.14a100,100,0,1,0,0,18Z"/></svg>